<svg width="438" height="348" viewBox="0 0 438 348" fill="none" xmlns="http://www.w3.org/2000/svg">
<path d="M326.394 220.802C301.061 258.837 249.86 350.171 198.072 347.857C146.285 345.543 44.5655 247.128 15.6672 206.918C-13.2312 166.708 5.32197 135.711 24.6823 106.596C44.0425 77.4797 94.9991 49.7225 131.829 32.2228C168.659 14.7231 195.177 -5.51835 245.661 1.59745C296.145 8.71324 417.333 55.2426 434.735 74.9175C452.136 94.5925 368.127 95.333 350.071 119.647C332.014 143.961 351.727 182.766 326.394 220.802C301.061 258.837 249.86 350.171 198.072 347.857Z" fill="url(#paint0_linear_3_57)"/>
<defs>
<linearGradient id="paint0_linear_3_57" x1="-8.01843" y1="13.1946" x2="431.895" y2="-11.773" gradientUnits="userSpaceOnUse">
<stop stop-color="#CA6CC4"/>
<stop offset="1" stop-color="#00DEE1"/>
</linearGradient>
</defs>
</svg>
